HIERARCHY
ROOT Hips
{
	OFFSET 0.000000 0.000000 0.000000
	CHANNELS 6 Xposition Yposition Zposition Yrotation Xrotation Zrotation
	JOINT Chest
	{
		OFFSET 0.000000 -0.009281 11.569106
		CHANNELS 3 Yrotation Xrotation Zrotation
		JOINT Chest2
		{
			OFFSET -0.000000 0.016865 9.269641
			CHANNELS 3 Yrotation Xrotation Zrotation
			JOINT Chest3
			{
				OFFSET -0.000000 0.000001 8.374491
				CHANNELS 3 Yrotation Xrotation Zrotation
				JOINT Chest4
				{
					OFFSET -0.000000 0.000001 8.374493
					CHANNELS 3 Yrotation Xrotation Zrotation
					JOINT Neck
					{
						OFFSET -0.000000 0.000002 12.152554
						CHANNELS 3 Yrotation Xrotation Zrotation
						JOINT Head
						{
							OFFSET -0.000000 0.040101 7.802319
							CHANNELS 3 Yrotation Xrotation Zrotation
							End Site
							{
								OFFSET -0.000000 0.020947 14.853096
							}
						}
					}
					JOINT RightCollar
					{
						OFFSET 2.894404 0.000001 6.791374
						CHANNELS 3 Yrotation Xrotation Zrotation
						JOINT RightShoulder
						{
							OFFSET 13.574684 0.000001 0.000000
							CHANNELS 3 Yrotation Xrotation Zrotation
							JOINT RightElbow
							{
								OFFSET 23.923903 0.000002 0.000000
								CHANNELS 3 Yrotation Xrotation Zrotation
								JOINT RightWrist
								{
									OFFSET 19.846718 0.012767 0.000000
									CHANNELS 3 Yrotation Xrotation Zrotation
									End Site
									{
										OFFSET 14.973145 0.000001 0.000000
									}
								}
							}
						}
					}
					JOINT LeftCollar
					{
						OFFSET -2.894404 0.000001 6.791374
						CHANNELS 3 Yrotation Xrotation Zrotation
						JOINT LeftShoulder
						{
							OFFSET -13.574684 -0.000001 0.000000
							CHANNELS 3 Yrotation Xrotation Zrotation
							JOINT LeftElbow
							{
								OFFSET -23.923903 -0.000002 0.000000
								CHANNELS 3 Yrotation Xrotation Zrotation
								JOINT LeftWrist
								{
									OFFSET -19.846718 0.012763 0.000000
									CHANNELS 3 Yrotation Xrotation Zrotation
									End Site
									{
										OFFSET -14.973145 -0.000001 0.000000
									}
								}
							}
						}
					}
				}
			}
		}
	}
	JOINT RightHip
	{
		OFFSET 9.469263 0.004643 0.045487
		CHANNELS 3 Yrotation Xrotation Zrotation
		JOINT RightKnee
		{
			OFFSET 0.000000 0.002661 -40.478676
			CHANNELS 3 Yrotation Xrotation Zrotation
			JOINT RightAnkle
			{
				OFFSET 0.000000 0.049106 -35.224068
				CHANNELS 3 Yrotation Xrotation Zrotation
				JOINT RightToe
				{
					OFFSET -0.000001 12.539529 -6.151390
					CHANNELS 3 Yrotation Xrotation Zrotation
					End Site
					{
						OFFSET -0.000001 5.044994 -1.291870
					}
				}
			}
		}
	}
	JOINT LeftHip
	{
		OFFSET -9.469263 0.004641 0.045487
		CHANNELS 3 Yrotation Xrotation Zrotation
		JOINT LeftKnee
		{
			OFFSET 0.000000 0.002661 -40.478676
			CHANNELS 3 Yrotation Xrotation Zrotation
			JOINT LeftAnkle
			{
				OFFSET 0.000000 0.049106 -35.224068
				CHANNELS 3 Yrotation Xrotation Zrotation
				JOINT LeftToe
				{
					OFFSET -0.000001 12.539529 -6.151390
					CHANNELS 3 Yrotation Xrotation Zrotation
					End Site
					{
						OFFSET -0.000001 5.044994 -1.291870
					}
				}
			}
		}
	}
}
MOTION
Frames: 16
Frame Time: 0.016667
-15.909164 -53.434639 82.778114 -2.034853 1.117898 -122.795654 -1.186573 -4.753100 3.748466 -0.599431 -2.018428 1.569178 -0.599430 -2.018428 1.569181 -0.444346 -1.515373 1.174786 1.035456 -11.140105 -2.943394 0.688103 15.480323 -5.208067 10.309464 5.816393 -1.778090 42.977729 -16.581114 -14.337431 -29.998030 -60.328616 89.336894 -45.953533 41.886910 50.224847 -7.541524 5.419186 -7.371156 -40.819943 -7.967948 20.302474 -2.966306 -64.791222 -59.658533 30.578436 15.484140 -75.348871 -3.406156 9.005049 11.704481 -3.592996 -22.948278 7.304667 9.418961 11.826876 11.619962 0.617555 1.523910 0.074978 -0.129572 1.184900 -5.774659 4.235893 -1.439947 -9.964537 -4.966934 -0.179768 -1.168069 1.359017 -1.593556 -0.050035 
-15.876443 -53.085365 82.612488 -2.443402 1.538959 -122.658012 -1.553820 -4.703026 3.738199 -0.655057 -2.024235 1.545391 -0.655057 -2.024235 1.545391 -0.486125 -1.519846 1.156755 1.012303 -11.230968 -2.965355 0.637247 15.310304 -5.258161 10.275157 5.782176 -1.856038 43.177495 -16.351239 -14.592605 -29.528578 -60.422299 88.747086 -45.869956 41.724447 50.217637 -7.545417 5.349246 -7.411520 -40.636074 -8.091343 20.065685 -2.737571 -64.904474 -60.093924 30.625496 15.659795 -75.493480 -4.116978 9.072666 12.573761 -3.002872 -23.788618 6.139913 7.735031 11.822754 10.652724 1.686433 1.956717 0.150607 -0.938213 1.628560 -6.645984 3.983912 -2.531567 -8.828487 -5.061918 0.448746 0.304465 1.540294 -1.518302 -0.132385 
-15.824756 -52.799545 82.526680 -2.543068 1.691496 -122.368918 -1.522125 -4.487325 3.599124 -0.669924 -1.963091 1.499373 -0.669924 -1.963091 1.499372 -0.497579 -1.473974 1.122265 0.916060 -11.456200 -2.949562 0.467831 14.889121 -5.263970 10.285056 5.880284 -1.746646 43.263767 -15.956657 -15.172270 -29.139155 -60.614657 88.388897 -45.656881 41.433720 50.272784 -7.699794 5.463930 -7.280174 -40.465988 -8.643692 20.039541 -2.457310 -64.955229 -60.521575 30.683245 15.889648 -75.627324 -4.572521 9.767112 13.764467 -0.878306 -25.165905 3.511986 5.386296 11.760116 9.127499 2.461881 2.240421 0.206119 -1.160684 2.042901 -7.135388 3.565830 -3.459697 -6.073569 -4.931626 0.995680 0.759852 1.493590 -1.480891 -0.040010 
-15.787383 -52.630245 82.507835 -2.615613 1.679144 -122.155270 -1.416023 -4.376297 3.533319 -0.648144 -1.881069 1.456200 -0.648143 -1.881070 1.456201 -0.481584 -1.412357 1.090062 0.788519 -11.704472 -2.916234 0.247402 14.424403 -5.248522 10.347772 6.136121 -1.594553 43.237471 -15.558512 -15.790714 -29.216295 -60.823941 88.532728 -45.450760 41.234552 50.364681 -7.823158 5.559490 -7.127616 -40.364314 -9.087608 20.074676 -2.393926 -65.029487 -60.638092 30.676541 16.044220 -75.601615 -4.918920 10.452793 14.264244 1.893590 -26.591608 -0.746142 3.176116 11.611091 8.443685 2.791292 2.386873 0.233865 -0.890630 2.050113 -6.087042 3.154996 -3.803042 -3.033201 -4.565201 1.626608 0.805142 1.064521 -1.714074 0.015139 
-15.551361 -52.876186 82.501831 -2.806641 1.300524 -122.265946 -1.161949 -4.617047 3.757015 -0.611075 -1.827860 1.444385 -0.611075 -1.827861 1.444383 -0.453950 -1.372351 1.081370 0.674530 -11.887073 -2.891459 0.047139 14.081778 -5.244857 10.422973 6.429933 -1.538344 43.201428 -15.344785 -16.175602 -29.581915 -60.924447 88.885684 -45.313370 41.231438 50.449270 -7.876134 5.655665 -7.056037 -40.320663 -9.239692 20.134529 -2.691945 -65.178419 -60.319313 30.633030 16.120775 -75.443353 -4.608848 10.418544 13.469661 3.631723 -27.646055 -5.119153 1.521690 11.398208 8.652126 2.842829 2.494917 0.160221 -0.352287 1.486592 -3.206449 2.796441 -3.737908 -0.939258 -3.784000 2.255335 1.092342 0.442369 -2.023970 0.220556 
-15.025231 -53.077209 82.533638 -3.006186 1.039419 -122.352949 -1.023145 -4.839344 3.937652 -0.571896 -1.805248 1.436103 -0.571896 -1.805248 1.436103 -0.424646 -1.355290 1.075299 0.584115 -11.988554 -2.866889 -0.111113 13.890575 -5.233542 10.418196 6.475830 -1.558888 43.233410 -15.337178 -16.173364 -29.768393 -60.855975 88.972202 -45.249098 41.368936 50.508890 -7.856177 5.660141 -6.977531 -40.382411 -9.153358 20.174849 -3.282950 -65.296089 -59.728782 30.601741 16.062138 -75.203914 -4.653346 10.066768 10.467565 4.565649 -28.348697 -7.585025 -0.029126 11.219936 8.465369 3.062407 3.110451 0.148784 0.216105 0.716281 0.923788 2.500136 -3.642804 0.065911 -2.729343 2.770663 2.102947 -0.381724 -1.999471 0.183973 
-14.320487 -53.461811 82.592102 -3.102050 0.785872 -122.372210 -0.820156 -4.975777 4.061401 -0.540622 -1.798058 1.423488 -0.540622 -1.798059 1.423486 -0.401248 -1.349814 1.065937 0.530238 -12.033649 -2.852915 -0.206260 13.805140 -5.228449 10.360421 6.430595 -1.662934 43.273347 -15.608096 -15.971279 -29.565994 -60.706674 88.672487 -45.245079 41.525037 50.537495 -7.825164 5.562658 -6.973662 -40.523444 -8.931267 20.270401 -3.792908 -65.325801 -59.249220 30.583214 15.935041 -75.012757 -4.712040 9.304867 5.985194 4.851301 -28.419574 -8.161313 -1.550071 10.968449 7.570541 3.237554 3.785724 0.121559 0.643860 -0.092500 5.506240 2.323417 -3.501106 0.879103 -1.761295 3.084596 2.686240 -0.973818 -1.778661 0.295893 
-13.496547 -53.801060 82.655327 -3.102368 0.698465 -122.233940 -0.707220 -4.933252 4.063901 -0.518480 -1.796576 1.404330 -0.518480 -1.796576 1.404330 -0.384701 -1.348632 1.051636 0.526988 -12.046720 -2.862048 -0.215821 13.780459 -5.246879 10.315169 6.423287 -1.787065 43.225074 -15.949176 -15.777097 -29.231195 -60.611939 88.313520 -45.254815 41.603778 50.536440 -7.809101 5.498327 -6.984896 -40.683749 -8.780542 20.399226 -3.956243 -65.339891 -59.089961 30.627053 15.877430 -74.917811 -5.002184 8.333726 1.434912 5.060931 -27.828354 -8.442427 -2.736512 10.565065 6.300330 3.405151 4.554737 0.140477 1.032066 -0.804039 9.583502 2.121175 -3.400342 2.049186 -1.066538 3.100066 3.271873 -1.372004 -1.280490 0.256751 
-12.665311 -54.063427 82.724594 -3.038454 0.658267 -122.030605 -0.635463 -4.805942 4.050425 -0.501597 -1.805550 1.388563 -0.501598 -1.805550 1.388561 -0.372065 -1.355311 1.039857 0.577767 -12.027523 -2.900699 -0.136069 13.816981 -5.299673 10.285249 6.419612 -1.891146 43.072539 -16.061243 -15.626657 -29.033935 -60.679332 88.192393 -45.266276 41.593031 50.510000 -7.807029 5.455438 -7.006550 -40.782885 -8.739037 20.457849 -3.890989 -65.362404 -59.147929 30.661593 15.919086 -74.884767 -5.184593 7.226796 -2.331897 5.495274 -26.880367 -9.617636 -3.644960 10.189219 5.146352 3.602520 5.462526 0.179530 1.287164 -1.348420 12.687127 1.889277 -3.416475 3.459557 -0.505259 3.021184 3.863762 -1.556728 -0.745605 0.271034 
-11.981561 -54.146603 82.795227 -2.533504 0.933973 -121.376164 -0.606475 -4.152212 3.601865 -0.489022 -1.822738 1.382219 -0.489021 -1.822739 1.382221 -0.362614 -1.368169 1.035124 0.669157 -11.985452 -2.959540 0.011742 13.896993 -5.374399 10.262167 6.420463 -1.943835 42.904783 -15.979374 -15.522599 -28.918621 -60.871978 88.204762 -45.280336 41.542197 50.474770 -7.829440 5.426795 -7.020112 -40.818143 -8.816993 20.450049 -3.864576 -65.344317 -59.156419 30.681196 16.053303 -74.852289 -5.459628 6.777227 -5.544379 6.114869 -25.908496 -11.825582 -4.107420 9.851304 4.247090 3.834253 6.182107 0.250543 1.558088 -1.057863 14.109368 1.529873 -3.601131 4.975549 0.037640 2.556605 5.195363 -1.665909 -0.065544 0.142880 
-11.282352 -54.114788 82.851624 -2.499231 0.896326 -121.210900 -0.617469 -4.074689 3.657563 -0.483973 -1.840494 1.388069 -0.483973 -1.840494 1.388069 -0.358769 -1.381479 1.039506 0.791281 -11.941753 -3.036320 0.210601 13.980747 -5.470237 10.199184 6.332389 -1.998163 42.842447 -15.870780 -15.396886 -28.741726 -61.013540 88.143222 -45.290827 41.482266 50.441818 -7.835736 5.360108 -7.052399 -40.844726 -8.916108 20.397494 -4.013205 -65.244255 -58.990568 30.654941 16.154413 -74.848491 -5.593000 5.941772 -7.305559 6.695906 -24.904818 -14.364265 -4.168943 9.643637 3.432090 4.005866 6.549249 0.302993 1.763362 -1.325263 14.866974 1.062502 -4.011784 6.530584 0.349404 2.210304 6.471860 -1.523857 0.648748 0.129040 
-10.684962 -53.871689 82.909996 -2.591326 1.079440 -121.086659 -0.875951 -4.008702 3.724462 -0.491367 -1.851059 1.412353 -0.491367 -1.851060 1.412350 -0.364216 -1.389440 1.057684 0.919284 -11.914783 -3.122077 0.417577 14.033460 -5.580145 10.097811 6.185449 -2.073498 42.916756 -15.891108 -15.258846 -28.522061 -61.001505 87.975254 -45.298726 41.403606 50.400926 -7.836399 5.312884 -7.108896 -40.854445 -8.941746 20.388190 -4.162262 -65.146078 -58.833692 30.623034 16.214990 -74.873586 -5.983407 5.282809 -8.345539 7.032272 -23.901219 -16.352152 -4.025877 9.539812 2.404227 4.212733 6.515386 0.351996 1.491912 -1.490093 14.893603 0.598550 -4.535203 7.944469 0.320437 2.106070 7.233172 -1.010784 1.176641 0.133318 
-10.113097 -53.534405 82.953270 -2.771182 1.304558 -120.993823 -1.172086 -4.003606 3.802978 -0.519372 -1.856327 1.441575 -0.519372 -1.856327 1.441574 -0.385117 -1.393481 1.079504 1.026599 -11.902131 -3.203655 0.587371 14.058952 -5.690488 10.022447 6.088262 -2.123778 43.026551 -15.998465 -15.182718 -28.400446 -60.935792 87.855870 -45.299638 41.293544 50.370138 -7.850994 5.383414 -7.147133 -40.806163 -8.913991 20.465190 -4.114446 -65.162409 -58.893006 30.574973 16.268676 -74.921267 -6.364642 4.651168 -8.850141 6.784863 -22.989208 -17.248067 -3.916169 9.647389 1.306520 4.714920 6.112113 0.386905 0.976836 -1.619572 14.489490 0.171960 -4.853152 8.736442 0.510572 2.095347 7.952823 -0.617528 1.335795 0.154325 
-9.569781 -53.077442 82.996834 -2.956868 1.517413 -120.868380 -1.391225 -4.030577 3.830909 -0.573848 -1.864651 1.463848 -0.573847 -1.864651 1.463848 -0.425883 -1.399874 1.096039 1.098057 -11.885171 -3.267919 0.695811 14.091519 -5.783235 10.012947 6.134822 -2.152184 43.092637 -16.136865 -15.143829 -28.428801 -60.981527 87.843746 -45.290838 41.192007 50.359944 -7.909565 5.551958 -7.194798 -40.646121 -8.820087 20.618348 -4.043593 -65.264616 -59.013463 30.474819 16.308607 -75.071347 -6.594446 3.972381 -8.705378 5.986613 -22.029592 -16.811865 -3.319830 9.998773 -0.150188 3.933067 4.067751 0.245437 0.357936 -1.765872 13.646411 -0.187633 -5.086573 9.177172 0.463149 2.250664 8.995866 -0.065665 1.336393 0.164652 
-9.163133 -52.503040 83.047737 -2.873628 1.708728 -120.885237 -1.479527 -3.935230 3.967438 -0.623051 -1.846560 1.501194 -0.623051 -1.846560 1.501192 -0.462713 -1.386462 1.123915 1.128649 -11.835062 -3.325750 0.727439 14.184191 -5.882204 10.098852 6.202876 -2.133002 43.099098 -16.196989 -15.084488 -28.461332 -61.165328 87.793059 -45.299351 41.219191 50.399758 -8.007715 5.719464 -7.291873 -40.442096 -8.735800 20.759091 -3.954450 -65.346073 -59.109857 30.384120 16.414037 -75.328285 -7.253377 3.659817 -7.328428 6.685117 -20.866267 -15.597171 -3.704870 9.738046 -3.061614 3.297107 2.767842 0.207276 -0.070004 -1.434688 12.709917 -0.494636 -5.580034 9.841055 0.233692 2.422347 9.610670 0.480615 1.374338 0.204001 
-9.053768 -51.861649 83.122139 -2.748087 1.822725 -120.938171 -1.500125 -3.843607 4.108656 -0.624621 -1.828578 1.519358 -0.624621 -1.828577 1.519358 -0.463883 -1.372998 1.137552 1.084096 -11.836579 -3.351487 0.631156 14.178860 -5.950655 10.320843 6.304898 -1.854081 43.017047 -16.263922 -15.154791 -28.184806 -61.440290 87.431974 -45.447765 41.532953 50.403610 -8.235588 6.078310 -7.191085 -40.383825 -8.955245 20.858496 -3.695717 -65.313937 -59.077906 30.233078 16.517341 -75.559794 -7.707652 3.770341 -5.755406 7.261761 -20.295108 -15.464218 -3.915428 9.555404 -4.688644 2.804150 1.938918 0.243452 -0.326603 -0.924234 12.155553 -0.775063 -6.081404 10.253681 0.099729 2.353319 9.789086 0.831571 1.440059 0.272054 
